<mxfile host="app.diagrams.net" modified="2024-04-28T17:40:07.921Z" agent="Mozilla/5.0 (Windows NT 10.0; Win64; x64) AppleWebKit/537.36 (KHTML, like Gecko) Chrome/124.0.0.0 Safari/537.36" etag="BhwCsavm1XqIpjXM-QN0" version="24.2.8" type="device" pages="8">
  <diagram name="Page-1" id="d3c67DZFch0hsYn3N-Is">
    <mxGraphModel dx="1050" dy="557" grid="1" gridSize="10" guides="1" tooltips="1" connect="1" arrows="1" fold="1" page="1" pageScale="1" pageWidth="827" pageHeight="1169" math="0" shadow="0">
      <root>
        <mxCell id="0" />
        <mxCell id="1" parent="0" />
        <mxCell id="EGQ1dFftdSNWQpjsNUYi-10" style="edgeStyle=orthogonalEdgeStyle;rounded=0;orthogonalLoop=1;jettySize=auto;html=1;entryX=0.5;entryY=0;entryDx=0;entryDy=0;" parent="1" source="EGQ1dFftdSNWQpjsNUYi-1" target="EGQ1dFftdSNWQpjsNUYi-4" edge="1">
          <mxGeometry relative="1" as="geometry" />
        </mxCell>
        <mxCell id="EGQ1dFftdSNWQpjsNUYi-1" value="chờ data từ browser &lt;br&gt;(bắt đầu)" style="rounded=0;whiteSpace=wrap;html=1;" parent="1" vertex="1">
          <mxGeometry x="120" y="120" width="150" height="60" as="geometry" />
        </mxCell>
        <mxCell id="EGQ1dFftdSNWQpjsNUYi-2" value="&lt;b&gt;ESP32-CAM&lt;/b&gt;" style="text;html=1;strokeColor=none;fillColor=none;align=center;verticalAlign=middle;whiteSpace=wrap;rounded=0;" parent="1" vertex="1">
          <mxGeometry x="130" y="60" width="130" height="30" as="geometry" />
        </mxCell>
        <mxCell id="EGQ1dFftdSNWQpjsNUYi-3" value="sự kiện ws" style="text;html=1;strokeColor=none;fillColor=none;align=center;verticalAlign=middle;whiteSpace=wrap;rounded=0;" parent="1" vertex="1">
          <mxGeometry x="40" y="80" width="60" height="30" as="geometry" />
        </mxCell>
        <mxCell id="EGQ1dFftdSNWQpjsNUYi-11" style="edgeStyle=orthogonalEdgeStyle;rounded=0;orthogonalLoop=1;jettySize=auto;html=1;entryX=0.5;entryY=0;entryDx=0;entryDy=0;" parent="1" source="EGQ1dFftdSNWQpjsNUYi-4" target="EGQ1dFftdSNWQpjsNUYi-5" edge="1">
          <mxGeometry relative="1" as="geometry" />
        </mxCell>
        <mxCell id="EGQ1dFftdSNWQpjsNUYi-4" value="Lấy hình ảnh" style="rounded=0;whiteSpace=wrap;html=1;" parent="1" vertex="1">
          <mxGeometry x="120" y="220" width="150" height="60" as="geometry" />
        </mxCell>
        <mxCell id="EGQ1dFftdSNWQpjsNUYi-12" style="edgeStyle=orthogonalEdgeStyle;rounded=0;orthogonalLoop=1;jettySize=auto;html=1;entryX=0.5;entryY=0;entryDx=0;entryDy=0;" parent="1" source="EGQ1dFftdSNWQpjsNUYi-5" target="EGQ1dFftdSNWQpjsNUYi-7" edge="1">
          <mxGeometry relative="1" as="geometry" />
        </mxCell>
        <mxCell id="EGQ1dFftdSNWQpjsNUYi-5" value="Xử lý rồi gửi hình ảnh đến ws." style="rounded=0;whiteSpace=wrap;html=1;" parent="1" vertex="1">
          <mxGeometry x="120" y="320" width="150" height="60" as="geometry" />
        </mxCell>
        <mxCell id="EGQ1dFftdSNWQpjsNUYi-7" value="Xóa các buffer" style="rounded=0;whiteSpace=wrap;html=1;" parent="1" vertex="1">
          <mxGeometry x="120" y="420" width="150" height="60" as="geometry" />
        </mxCell>
        <mxCell id="EGQ1dFftdSNWQpjsNUYi-8" value="&lt;b&gt;Browser&lt;br&gt;&lt;/b&gt;" style="text;html=1;strokeColor=none;fillColor=none;align=center;verticalAlign=middle;whiteSpace=wrap;rounded=0;" parent="1" vertex="1">
          <mxGeometry x="490" y="50" width="130" height="30" as="geometry" />
        </mxCell>
        <mxCell id="EGQ1dFftdSNWQpjsNUYi-9" value="gửi tín hiệu bắt đầu tới ws" style="rounded=0;whiteSpace=wrap;html=1;" parent="1" vertex="1">
          <mxGeometry x="490" y="120" width="150" height="60" as="geometry" />
        </mxCell>
        <mxCell id="EGQ1dFftdSNWQpjsNUYi-16" style="edgeStyle=orthogonalEdgeStyle;rounded=0;orthogonalLoop=1;jettySize=auto;html=1;entryX=0.5;entryY=0;entryDx=0;entryDy=0;" parent="1" source="EGQ1dFftdSNWQpjsNUYi-13" target="EGQ1dFftdSNWQpjsNUYi-14" edge="1">
          <mxGeometry relative="1" as="geometry" />
        </mxCell>
        <mxCell id="EGQ1dFftdSNWQpjsNUYi-13" value="Nhận hình ảnh từ ws" style="rounded=0;whiteSpace=wrap;html=1;" parent="1" vertex="1">
          <mxGeometry x="490" y="370" width="150" height="60" as="geometry" />
        </mxCell>
        <mxCell id="EGQ1dFftdSNWQpjsNUYi-14" value="xử lý hình ảnh để hiển thị ra browser" style="rounded=0;whiteSpace=wrap;html=1;" parent="1" vertex="1">
          <mxGeometry x="490" y="480" width="150" height="60" as="geometry" />
        </mxCell>
        <mxCell id="EGQ1dFftdSNWQpjsNUYi-17" value="" style="endArrow=classic;html=1;rounded=0;entryX=0;entryY=0.5;entryDx=0;entryDy=0;" parent="1" target="EGQ1dFftdSNWQpjsNUYi-13" edge="1">
          <mxGeometry width="50" height="50" relative="1" as="geometry">
            <mxPoint x="200" y="400" as="sourcePoint" />
            <mxPoint x="450" y="400" as="targetPoint" />
          </mxGeometry>
        </mxCell>
        <mxCell id="EGQ1dFftdSNWQpjsNUYi-18" value="" style="endArrow=classic;html=1;rounded=0;entryX=1;entryY=0.5;entryDx=0;entryDy=0;exitX=0;exitY=0.5;exitDx=0;exitDy=0;" parent="1" source="EGQ1dFftdSNWQpjsNUYi-9" target="EGQ1dFftdSNWQpjsNUYi-1" edge="1">
          <mxGeometry width="50" height="50" relative="1" as="geometry">
            <mxPoint x="560" y="200" as="sourcePoint" />
            <mxPoint x="280" y="200" as="targetPoint" />
          </mxGeometry>
        </mxCell>
      </root>
    </mxGraphModel>
  </diagram>
  <diagram id="2gaJu2x2Afsy2Adq4Hxl" name="Page-2">
    <mxGraphModel dx="2022" dy="643" grid="1" gridSize="10" guides="1" tooltips="1" connect="1" arrows="1" fold="1" page="1" pageScale="1" pageWidth="827" pageHeight="1169" math="0" shadow="0">
      <root>
        <mxCell id="0" />
        <mxCell id="1" parent="0" />
        <mxCell id="DBuALGhzUYox_bnZmkWr-1" style="edgeStyle=orthogonalEdgeStyle;rounded=0;orthogonalLoop=1;jettySize=auto;html=1;entryX=0.5;entryY=0;entryDx=0;entryDy=0;exitX=0.5;exitY=1;exitDx=0;exitDy=0;" parent="1" source="OKI0TCpxHA-_odTOT0lv-19" target="DBuALGhzUYox_bnZmkWr-6" edge="1">
          <mxGeometry relative="1" as="geometry">
            <mxPoint x="-359.9655172413793" y="389.9999999999999" as="sourcePoint" />
          </mxGeometry>
        </mxCell>
        <mxCell id="OKI0TCpxHA-_odTOT0lv-20" value="Yes" style="edgeLabel;html=1;align=center;verticalAlign=middle;resizable=0;points=[];" parent="DBuALGhzUYox_bnZmkWr-1" vertex="1" connectable="0">
          <mxGeometry x="-0.3238" relative="1" as="geometry">
            <mxPoint as="offset" />
          </mxGeometry>
        </mxCell>
        <mxCell id="DBuALGhzUYox_bnZmkWr-3" value="&lt;b&gt;ESP32-CAM&lt;/b&gt;" style="text;html=1;strokeColor=none;fillColor=none;align=center;verticalAlign=middle;whiteSpace=wrap;rounded=0;" parent="1" vertex="1">
          <mxGeometry x="-190" y="70" width="130" height="30" as="geometry" />
        </mxCell>
        <mxCell id="DBuALGhzUYox_bnZmkWr-4" value="sự kiện ws" style="text;html=1;strokeColor=none;fillColor=none;align=center;verticalAlign=middle;whiteSpace=wrap;rounded=0;" parent="1" vertex="1">
          <mxGeometry x="-330" y="150" width="60" height="30" as="geometry" />
        </mxCell>
        <mxCell id="DBuALGhzUYox_bnZmkWr-5" style="edgeStyle=orthogonalEdgeStyle;rounded=0;orthogonalLoop=1;jettySize=auto;html=1;entryX=0.5;entryY=0;entryDx=0;entryDy=0;" parent="1" source="DBuALGhzUYox_bnZmkWr-6" target="DBuALGhzUYox_bnZmkWr-8" edge="1">
          <mxGeometry relative="1" as="geometry" />
        </mxCell>
        <mxCell id="DBuALGhzUYox_bnZmkWr-6" value="Lấy hình ảnh" style="rounded=0;whiteSpace=wrap;html=1;" parent="1" vertex="1">
          <mxGeometry x="-440" y="400" width="160" height="40" as="geometry" />
        </mxCell>
        <mxCell id="DBuALGhzUYox_bnZmkWr-7" style="edgeStyle=orthogonalEdgeStyle;rounded=0;orthogonalLoop=1;jettySize=auto;html=1;entryX=0.5;entryY=0;entryDx=0;entryDy=0;" parent="1" source="DBuALGhzUYox_bnZmkWr-8" target="DBuALGhzUYox_bnZmkWr-9" edge="1">
          <mxGeometry relative="1" as="geometry" />
        </mxCell>
        <mxCell id="DBuALGhzUYox_bnZmkWr-8" value="Xử lý rồi gửi hình ảnh đến ws" style="rounded=0;whiteSpace=wrap;html=1;" parent="1" vertex="1">
          <mxGeometry x="-440" y="470" width="160" height="40" as="geometry" />
        </mxCell>
        <mxCell id="DBuALGhzUYox_bnZmkWr-9" value="Xóa các buffer" style="rounded=0;whiteSpace=wrap;html=1;" parent="1" vertex="1">
          <mxGeometry x="-440" y="530" width="160" height="40" as="geometry" />
        </mxCell>
        <mxCell id="DBuALGhzUYox_bnZmkWr-10" value="&lt;b&gt;Browser&lt;br&gt;(html &amp;amp; js)&lt;/b&gt;" style="text;html=1;strokeColor=none;fillColor=none;align=center;verticalAlign=middle;whiteSpace=wrap;rounded=0;" parent="1" vertex="1">
          <mxGeometry x="490" y="50" width="130" height="30" as="geometry" />
        </mxCell>
        <mxCell id="DBuALGhzUYox_bnZmkWr-12" style="edgeStyle=orthogonalEdgeStyle;rounded=0;orthogonalLoop=1;jettySize=auto;html=1;entryX=0.5;entryY=0;entryDx=0;entryDy=0;fillColor=#dae8fc;strokeColor=#6c8ebf;" parent="1" source="DBuALGhzUYox_bnZmkWr-13" target="DBuALGhzUYox_bnZmkWr-14" edge="1">
          <mxGeometry relative="1" as="geometry" />
        </mxCell>
        <mxCell id="DBuALGhzUYox_bnZmkWr-13" value="Nhận hình ảnh từ ws" style="rounded=0;whiteSpace=wrap;html=1;fillColor=#dae8fc;strokeColor=#6c8ebf;" parent="1" vertex="1">
          <mxGeometry x="465" y="480" width="150" height="40" as="geometry" />
        </mxCell>
        <mxCell id="DBuALGhzUYox_bnZmkWr-44" style="edgeStyle=orthogonalEdgeStyle;rounded=0;orthogonalLoop=1;jettySize=auto;html=1;fillColor=#dae8fc;strokeColor=#6c8ebf;" parent="1" source="DBuALGhzUYox_bnZmkWr-14" edge="1">
          <mxGeometry relative="1" as="geometry">
            <mxPoint x="370" y="680" as="targetPoint" />
            <Array as="points">
              <mxPoint x="540" y="680" />
              <mxPoint x="420" y="680" />
            </Array>
          </mxGeometry>
        </mxCell>
        <mxCell id="DBuALGhzUYox_bnZmkWr-14" value="xử lý hình ảnh rồi hiển thị ra màn hình" style="rounded=0;whiteSpace=wrap;html=1;fillColor=#dae8fc;strokeColor=#6c8ebf;" parent="1" vertex="1">
          <mxGeometry x="465" y="540" width="150" height="40" as="geometry" />
        </mxCell>
        <mxCell id="DBuALGhzUYox_bnZmkWr-23" value="on_message function" style="text;html=1;align=center;verticalAlign=middle;whiteSpace=wrap;rounded=0;fontStyle=1" parent="1" vertex="1">
          <mxGeometry x="354" y="240" width="86" height="30" as="geometry" />
        </mxCell>
        <mxCell id="DBuALGhzUYox_bnZmkWr-31" style="edgeStyle=orthogonalEdgeStyle;rounded=0;orthogonalLoop=1;jettySize=auto;html=1;entryX=0.5;entryY=0;entryDx=0;entryDy=0;" parent="1" source="DBuALGhzUYox_bnZmkWr-27" target="DBuALGhzUYox_bnZmkWr-30" edge="1">
          <mxGeometry relative="1" as="geometry" />
        </mxCell>
        <mxCell id="DBuALGhzUYox_bnZmkWr-32" value="Yes" style="edgeLabel;html=1;align=center;verticalAlign=middle;resizable=0;points=[];" parent="DBuALGhzUYox_bnZmkWr-31" vertex="1" connectable="0">
          <mxGeometry x="-0.4411" y="2" relative="1" as="geometry">
            <mxPoint as="offset" />
          </mxGeometry>
        </mxCell>
        <mxCell id="DBuALGhzUYox_bnZmkWr-39" style="edgeStyle=orthogonalEdgeStyle;rounded=0;orthogonalLoop=1;jettySize=auto;html=1;entryX=0.5;entryY=0;entryDx=0;entryDy=0;fillColor=#dae8fc;strokeColor=#6c8ebf;" parent="1" source="DBuALGhzUYox_bnZmkWr-27" target="DBuALGhzUYox_bnZmkWr-13" edge="1">
          <mxGeometry relative="1" as="geometry" />
        </mxCell>
        <mxCell id="DBuALGhzUYox_bnZmkWr-40" value="No" style="edgeLabel;html=1;align=center;verticalAlign=middle;resizable=0;points=[];" parent="DBuALGhzUYox_bnZmkWr-39" vertex="1" connectable="0">
          <mxGeometry x="-0.3223" y="2" relative="1" as="geometry">
            <mxPoint as="offset" />
          </mxGeometry>
        </mxCell>
        <mxCell id="DBuALGhzUYox_bnZmkWr-27" value="Data là khuôn mặt&amp;nbsp;&lt;div&gt;đã được nhận dạng?&lt;/div&gt;" style="rhombus;whiteSpace=wrap;html=1;fillColor=#dae8fc;strokeColor=#6c8ebf;" parent="1" vertex="1">
          <mxGeometry x="280" y="420" width="170" height="50" as="geometry" />
        </mxCell>
        <mxCell id="DBuALGhzUYox_bnZmkWr-34" style="edgeStyle=orthogonalEdgeStyle;rounded=0;orthogonalLoop=1;jettySize=auto;html=1;entryX=0.5;entryY=0;entryDx=0;entryDy=0;" parent="1" source="DBuALGhzUYox_bnZmkWr-30" target="DBuALGhzUYox_bnZmkWr-33" edge="1">
          <mxGeometry relative="1" as="geometry" />
        </mxCell>
        <mxCell id="DBuALGhzUYox_bnZmkWr-30" value="Nhận hình ảnh tiếp theo rồi tải xuống" style="rounded=0;whiteSpace=wrap;html=1;fillColor=#dae8fc;strokeColor=#6c8ebf;" parent="1" vertex="1">
          <mxGeometry x="290" y="500" width="150" height="40" as="geometry" />
        </mxCell>
        <mxCell id="OKI0TCpxHA-_odTOT0lv-14" style="edgeStyle=orthogonalEdgeStyle;rounded=0;orthogonalLoop=1;jettySize=auto;html=1;entryX=0.5;entryY=0;entryDx=0;entryDy=0;" parent="1" source="DBuALGhzUYox_bnZmkWr-33" target="OKI0TCpxHA-_odTOT0lv-13" edge="1">
          <mxGeometry relative="1" as="geometry" />
        </mxCell>
        <mxCell id="DBuALGhzUYox_bnZmkWr-33" value="Xóa hình ảnh hiển thị ngoài màn hình" style="rounded=0;whiteSpace=wrap;html=1;fillColor=#dae8fc;strokeColor=#6c8ebf;" parent="1" vertex="1">
          <mxGeometry x="290" y="560" width="150" height="40" as="geometry" />
        </mxCell>
        <mxCell id="DBuALGhzUYox_bnZmkWr-41" value="End function" style="ellipse;whiteSpace=wrap;html=1;fillColor=#dae8fc;strokeColor=#6c8ebf;" parent="1" vertex="1">
          <mxGeometry x="315" y="690" width="100" height="40" as="geometry" />
        </mxCell>
        <mxCell id="DBuALGhzUYox_bnZmkWr-46" style="edgeStyle=orthogonalEdgeStyle;rounded=0;orthogonalLoop=1;jettySize=auto;html=1;entryX=0.5;entryY=0;entryDx=0;entryDy=0;fillColor=#dae8fc;strokeColor=#6c8ebf;" parent="1" source="DBuALGhzUYox_bnZmkWr-45" target="DBuALGhzUYox_bnZmkWr-27" edge="1">
          <mxGeometry relative="1" as="geometry" />
        </mxCell>
        <mxCell id="DBuALGhzUYox_bnZmkWr-47" value="Yes" style="edgeLabel;html=1;align=center;verticalAlign=middle;resizable=0;points=[];" parent="DBuALGhzUYox_bnZmkWr-46" vertex="1" connectable="0">
          <mxGeometry x="-0.5559" y="1" relative="1" as="geometry">
            <mxPoint as="offset" />
          </mxGeometry>
        </mxCell>
        <mxCell id="DBuALGhzUYox_bnZmkWr-45" value="Giữ đồ?" style="rhombus;whiteSpace=wrap;html=1;fillColor=#dae8fc;strokeColor=#6c8ebf;" parent="1" vertex="1">
          <mxGeometry x="280" y="340" width="170" height="50" as="geometry" />
        </mxCell>
        <mxCell id="OKI0TCpxHA-_odTOT0lv-1" value="GIỮ ĐỒ" style="rounded=1;whiteSpace=wrap;html=1;fillColor=#dae8fc;strokeColor=#6c8ebf;" parent="1" vertex="1">
          <mxGeometry x="350" y="110" width="80" height="50" as="geometry" />
        </mxCell>
        <mxCell id="OKI0TCpxHA-_odTOT0lv-2" value="LẤY ĐỒ" style="rounded=1;whiteSpace=wrap;html=1;fillColor=#d5e8d4;strokeColor=#82b366;" parent="1" vertex="1">
          <mxGeometry x="670" y="110" width="80" height="50" as="geometry" />
        </mxCell>
        <mxCell id="OKI0TCpxHA-_odTOT0lv-8" value="" style="endArrow=classic;html=1;rounded=0;exitX=0.5;exitY=1;exitDx=0;exitDy=0;" parent="1" source="OKI0TCpxHA-_odTOT0lv-1" edge="1">
          <mxGeometry width="50" height="50" relative="1" as="geometry">
            <mxPoint x="330" y="340" as="sourcePoint" />
            <mxPoint x="200" y="180" as="targetPoint" />
            <Array as="points">
              <mxPoint x="390" y="180" />
            </Array>
          </mxGeometry>
        </mxCell>
        <mxCell id="OKI0TCpxHA-_odTOT0lv-9" value="send ws: capture" style="edgeLabel;html=1;align=center;verticalAlign=middle;resizable=0;points=[];" parent="OKI0TCpxHA-_odTOT0lv-8" vertex="1" connectable="0">
          <mxGeometry x="0.0949" relative="1" as="geometry">
            <mxPoint as="offset" />
          </mxGeometry>
        </mxCell>
        <mxCell id="OKI0TCpxHA-_odTOT0lv-10" value="" style="endArrow=classic;html=1;rounded=0;entryX=0.5;entryY=0;entryDx=0;entryDy=0;" parent="1" target="DBuALGhzUYox_bnZmkWr-45" edge="1">
          <mxGeometry width="50" height="50" relative="1" as="geometry">
            <mxPoint x="120" y="300" as="sourcePoint" />
            <mxPoint x="365" y="379.9999999999999" as="targetPoint" />
            <Array as="points">
              <mxPoint x="200" y="300" />
              <mxPoint x="365" y="300" />
            </Array>
          </mxGeometry>
        </mxCell>
        <mxCell id="OKI0TCpxHA-_odTOT0lv-11" value="receive from ws" style="edgeLabel;html=1;align=center;verticalAlign=middle;resizable=0;points=[];" parent="OKI0TCpxHA-_odTOT0lv-10" vertex="1" connectable="0">
          <mxGeometry x="-0.1212" y="2" relative="1" as="geometry">
            <mxPoint as="offset" />
          </mxGeometry>
        </mxCell>
        <mxCell id="OKI0TCpxHA-_odTOT0lv-15" style="edgeStyle=orthogonalEdgeStyle;rounded=0;orthogonalLoop=1;jettySize=auto;html=1;entryX=0.5;entryY=0;entryDx=0;entryDy=0;" parent="1" source="OKI0TCpxHA-_odTOT0lv-13" target="DBuALGhzUYox_bnZmkWr-41" edge="1">
          <mxGeometry relative="1" as="geometry" />
        </mxCell>
        <mxCell id="OKI0TCpxHA-_odTOT0lv-13" value="Thông báo đã lưu lại thông tin người dùng" style="rounded=0;whiteSpace=wrap;html=1;fillColor=#dae8fc;strokeColor=#6c8ebf;" parent="1" vertex="1">
          <mxGeometry x="290" y="620" width="150" height="40" as="geometry" />
        </mxCell>
        <mxCell id="OKI0TCpxHA-_odTOT0lv-16" value="" style="endArrow=classic;html=1;rounded=0;entryX=0.5;entryY=0;entryDx=0;entryDy=0;" parent="1" target="OKI0TCpxHA-_odTOT0lv-19" edge="1">
          <mxGeometry width="50" height="50" relative="1" as="geometry">
            <mxPoint x="-630" y="290" as="sourcePoint" />
            <mxPoint x="-385" y="305" as="targetPoint" />
            <Array as="points">
              <mxPoint x="-550" y="290" />
              <mxPoint x="-360" y="290" />
            </Array>
          </mxGeometry>
        </mxCell>
        <mxCell id="OKI0TCpxHA-_odTOT0lv-17" value="receive from ws" style="edgeLabel;html=1;align=center;verticalAlign=middle;resizable=0;points=[];" parent="OKI0TCpxHA-_odTOT0lv-16" vertex="1" connectable="0">
          <mxGeometry x="-0.1212" y="2" relative="1" as="geometry">
            <mxPoint as="offset" />
          </mxGeometry>
        </mxCell>
        <mxCell id="OKI0TCpxHA-_odTOT0lv-22" style="edgeStyle=orthogonalEdgeStyle;rounded=0;orthogonalLoop=1;jettySize=auto;html=1;entryX=0;entryY=0.5;entryDx=0;entryDy=0;" parent="1" source="OKI0TCpxHA-_odTOT0lv-19" target="OKI0TCpxHA-_odTOT0lv-21" edge="1">
          <mxGeometry relative="1" as="geometry" />
        </mxCell>
        <mxCell id="OKI0TCpxHA-_odTOT0lv-19" value="Capture?" style="rhombus;whiteSpace=wrap;html=1;fillColor=#dae8fc;strokeColor=#6c8ebf;" parent="1" vertex="1">
          <mxGeometry x="-440" y="320" width="160" height="50" as="geometry" />
        </mxCell>
        <mxCell id="OKI0TCpxHA-_odTOT0lv-21" value="py_send?" style="rhombus;whiteSpace=wrap;html=1;" parent="1" vertex="1">
          <mxGeometry x="-240" y="320" width="160" height="50" as="geometry" />
        </mxCell>
        <mxCell id="OKI0TCpxHA-_odTOT0lv-23" value="Phân tích chuỗi nhận được để lấy thông tin" style="rounded=0;whiteSpace=wrap;html=1;" parent="1" vertex="1">
          <mxGeometry x="-240" y="400" width="160" height="40" as="geometry" />
        </mxCell>
      </root>
    </mxGraphModel>
  </diagram>
  <diagram id="n45KdtBM2BzpUjJ_3keT" name="Page-3">
    <mxGraphModel dx="1050" dy="557" grid="1" gridSize="10" guides="1" tooltips="1" connect="1" arrows="1" fold="1" page="1" pageScale="1" pageWidth="827" pageHeight="1169" math="0" shadow="0">
      <root>
        <mxCell id="0" />
        <mxCell id="1" parent="0" />
        <mxCell id="AN-5gHWihka94dk4Ncwe-6" value="" style="rounded=0;whiteSpace=wrap;html=1;" parent="1" vertex="1">
          <mxGeometry x="80" y="30" width="700" height="530" as="geometry" />
        </mxCell>
        <mxCell id="W-RAhkZgxn5DVieuNDxE-13" style="edgeStyle=orthogonalEdgeStyle;rounded=0;orthogonalLoop=1;jettySize=auto;html=1;entryX=0.5;entryY=0;entryDx=0;entryDy=0;" parent="1" source="W-RAhkZgxn5DVieuNDxE-1" target="W-RAhkZgxn5DVieuNDxE-12" edge="1">
          <mxGeometry relative="1" as="geometry" />
        </mxCell>
        <mxCell id="W-RAhkZgxn5DVieuNDxE-1" value="ESP32-CAM" style="rounded=0;whiteSpace=wrap;html=1;fillColor=#dae8fc;strokeColor=#6c8ebf;" parent="1" vertex="1">
          <mxGeometry x="170" y="180" width="120" height="200" as="geometry" />
        </mxCell>
        <mxCell id="AN-5gHWihka94dk4Ncwe-5" style="edgeStyle=orthogonalEdgeStyle;rounded=0;orthogonalLoop=1;jettySize=auto;html=1;" parent="1" source="W-RAhkZgxn5DVieuNDxE-2" target="AN-5gHWihka94dk4Ncwe-4" edge="1">
          <mxGeometry relative="1" as="geometry" />
        </mxCell>
        <mxCell id="W-RAhkZgxn5DVieuNDxE-2" value="ESP32" style="rounded=0;whiteSpace=wrap;html=1;fillColor=#d5e8d4;strokeColor=#82b366;" parent="1" vertex="1">
          <mxGeometry x="370" y="180" width="120" height="200" as="geometry" />
        </mxCell>
        <mxCell id="W-RAhkZgxn5DVieuNDxE-6" style="edgeStyle=orthogonalEdgeStyle;rounded=0;orthogonalLoop=1;jettySize=auto;html=1;entryX=0.5;entryY=0;entryDx=0;entryDy=0;" parent="1" source="W-RAhkZgxn5DVieuNDxE-5" target="W-RAhkZgxn5DVieuNDxE-2" edge="1">
          <mxGeometry relative="1" as="geometry" />
        </mxCell>
        <mxCell id="W-RAhkZgxn5DVieuNDxE-7" style="edgeStyle=orthogonalEdgeStyle;rounded=0;orthogonalLoop=1;jettySize=auto;html=1;entryX=0.5;entryY=0;entryDx=0;entryDy=0;" parent="1" source="W-RAhkZgxn5DVieuNDxE-5" target="W-RAhkZgxn5DVieuNDxE-1" edge="1">
          <mxGeometry relative="1" as="geometry" />
        </mxCell>
        <mxCell id="W-RAhkZgxn5DVieuNDxE-11" value="Switch to reset" style="edgeLabel;html=1;align=center;verticalAlign=middle;resizable=0;points=[];" parent="W-RAhkZgxn5DVieuNDxE-7" vertex="1" connectable="0">
          <mxGeometry x="-0.0225" relative="1" as="geometry">
            <mxPoint as="offset" />
          </mxGeometry>
        </mxCell>
        <mxCell id="W-RAhkZgxn5DVieuNDxE-5" value="Power 3.3V&lt;br&gt;(Nguồn pin)" style="rounded=1;whiteSpace=wrap;html=1;fillColor=#fff2cc;strokeColor=#d6b656;" parent="1" vertex="1">
          <mxGeometry x="170" y="50" width="320" height="60" as="geometry" />
        </mxCell>
        <mxCell id="W-RAhkZgxn5DVieuNDxE-12" value="Header:&lt;br&gt;2 pinout tx0 rx0&lt;div&gt;GPIO0 &amp;lt;-&amp;gt; GND (switch)&lt;/div&gt;&lt;div&gt;Led báo hoạt động&lt;/div&gt;&lt;div&gt;&lt;br&gt;&lt;/div&gt;" style="rounded=0;whiteSpace=wrap;html=1;" parent="1" vertex="1">
          <mxGeometry x="150" y="460" width="160" height="80" as="geometry" />
        </mxCell>
        <mxCell id="W-RAhkZgxn5DVieuNDxE-14" value="Fingerprint sensor" style="rounded=0;whiteSpace=wrap;html=1;" parent="1" vertex="1">
          <mxGeometry x="630" y="200" width="120" height="60" as="geometry" />
        </mxCell>
        <mxCell id="W-RAhkZgxn5DVieuNDxE-15" value="" style="endArrow=classic;startArrow=classic;html=1;rounded=0;entryX=0;entryY=0.5;entryDx=0;entryDy=0;exitX=1;exitY=0.25;exitDx=0;exitDy=0;" parent="1" source="W-RAhkZgxn5DVieuNDxE-2" target="W-RAhkZgxn5DVieuNDxE-14" edge="1">
          <mxGeometry width="50" height="50" relative="1" as="geometry">
            <mxPoint x="270" y="260" as="sourcePoint" />
            <mxPoint x="320" y="210" as="targetPoint" />
          </mxGeometry>
        </mxCell>
        <mxCell id="W-RAhkZgxn5DVieuNDxE-16" value="UART1" style="edgeLabel;html=1;align=center;verticalAlign=middle;resizable=0;points=[];" parent="W-RAhkZgxn5DVieuNDxE-15" vertex="1" connectable="0">
          <mxGeometry y="-1" relative="1" as="geometry">
            <mxPoint as="offset" />
          </mxGeometry>
        </mxCell>
        <mxCell id="AN-5gHWihka94dk4Ncwe-1" value="7 cửa demo&lt;br&gt;(7 led)" style="rounded=0;whiteSpace=wrap;html=1;" parent="1" vertex="1">
          <mxGeometry x="630" y="300" width="120" height="60" as="geometry" />
        </mxCell>
        <mxCell id="AN-5gHWihka94dk4Ncwe-2" value="" style="endArrow=classic;html=1;rounded=0;entryX=0;entryY=0.5;entryDx=0;entryDy=0;exitX=1;exitY=0.75;exitDx=0;exitDy=0;" parent="1" source="W-RAhkZgxn5DVieuNDxE-2" target="AN-5gHWihka94dk4Ncwe-1" edge="1">
          <mxGeometry width="50" height="50" relative="1" as="geometry">
            <mxPoint x="420" y="420" as="sourcePoint" />
            <mxPoint x="470" y="370" as="targetPoint" />
          </mxGeometry>
        </mxCell>
        <mxCell id="AN-5gHWihka94dk4Ncwe-3" value="7 pin" style="edgeLabel;html=1;align=center;verticalAlign=middle;resizable=0;points=[];" parent="AN-5gHWihka94dk4Ncwe-2" vertex="1" connectable="0">
          <mxGeometry x="-0.0952" y="1" relative="1" as="geometry">
            <mxPoint as="offset" />
          </mxGeometry>
        </mxCell>
        <mxCell id="AN-5gHWihka94dk4Ncwe-4" value="1 led báo hoạt động" style="rounded=0;whiteSpace=wrap;html=1;" parent="1" vertex="1">
          <mxGeometry x="370" y="460" width="120" height="80" as="geometry" />
        </mxCell>
      </root>
    </mxGraphModel>
  </diagram>
  <diagram id="lNjc1ugLMNGx9OZgF1ea" name="BackEnd">
    <mxGraphModel dx="1050" dy="557" grid="1" gridSize="10" guides="1" tooltips="1" connect="1" arrows="1" fold="1" page="1" pageScale="1" pageWidth="827" pageHeight="1169" math="0" shadow="0">
      <root>
        <mxCell id="0" />
        <mxCell id="1" parent="0" />
        <mxCell id="QyJ9Kq7cjNbWDGEBcqiD-2" value="" style="line;strokeWidth=4;html=1;perimeter=backbonePerimeter;points=[];outlineConnect=0;rotation=90;" parent="1" vertex="1">
          <mxGeometry x="-20" y="450" width="360" height="10" as="geometry" />
        </mxCell>
      </root>
    </mxGraphModel>
  </diagram>
  <diagram id="nm7itQyvDUgqDwd0_UMG" name="Page-5">
    <mxGraphModel dx="1434" dy="772" grid="1" gridSize="10" guides="1" tooltips="1" connect="1" arrows="1" fold="1" page="1" pageScale="1" pageWidth="827" pageHeight="1169" math="0" shadow="0">
      <root>
        <mxCell id="0" />
        <mxCell id="1" parent="0" />
        <mxCell id="EYPEGqIBR1DLO2vvUoHv-5" value="&lt;b&gt;Node MCU ESP32&amp;nbsp;&lt;/b&gt;" style="rounded=1;whiteSpace=wrap;html=1;fillColor=#dae8fc;strokeColor=#6c8ebf;" parent="1" vertex="1">
          <mxGeometry x="379.67" y="380" width="110" height="210" as="geometry" />
        </mxCell>
        <mxCell id="EYPEGqIBR1DLO2vvUoHv-6" value="&lt;b&gt;Node MCU ESP32-CAM&lt;/b&gt;" style="rounded=1;whiteSpace=wrap;html=1;fillColor=#dae8fc;strokeColor=#6c8ebf;" parent="1" vertex="1">
          <mxGeometry x="101.33" y="380" width="110" height="210" as="geometry" />
        </mxCell>
        <mxCell id="EYPEGqIBR1DLO2vvUoHv-8" value="Web App" style="fillColor=#dae8fc;whiteSpace=wrap;shape=cloud;html=1;strokeColor=#6c8ebf;" parent="1" vertex="1">
          <mxGeometry x="83" y="140" width="146.67" height="110" as="geometry" />
        </mxCell>
        <mxCell id="EYPEGqIBR1DLO2vvUoHv-12" value="Server" style="fillColor=#dae8fc;whiteSpace=wrap;shape=cloud;html=1;strokeColor=#6c8ebf;" parent="1" vertex="1">
          <mxGeometry x="289.67" y="160" width="146.67" height="110" as="geometry" />
        </mxCell>
        <mxCell id="EYPEGqIBR1DLO2vvUoHv-14" value="MogoDB&lt;div&gt;database&lt;/div&gt;" style="strokeWidth=2;html=1;shape=mxgraph.flowchart.database;whiteSpace=wrap;fillColor=#dae8fc;strokeColor=#6c8ebf;" parent="1" vertex="1">
          <mxGeometry x="683.67" y="185" width="60" height="60" as="geometry" />
        </mxCell>
        <mxCell id="EYPEGqIBR1DLO2vvUoHv-15" value="Script Python" style="fillColor=#dae8fc;whiteSpace=wrap;shape=cloud;html=1;strokeColor=#6c8ebf;" parent="1" vertex="1">
          <mxGeometry x="493.67" y="160" width="146.67" height="110" as="geometry" />
        </mxCell>
        <mxCell id="EYPEGqIBR1DLO2vvUoHv-18" value="7 cửa" style="rounded=1;whiteSpace=wrap;html=1;fillColor=#dae8fc;strokeColor=#6c8ebf;" parent="1" vertex="1">
          <mxGeometry x="589.67" y="390" width="80" height="75" as="geometry" />
        </mxCell>
        <mxCell id="EYPEGqIBR1DLO2vvUoHv-21" value="" style="endArrow=classic;startArrow=classic;html=1;rounded=0;entryX=0.517;entryY=0.965;entryDx=0;entryDy=0;entryPerimeter=0;exitX=0.5;exitY=0;exitDx=0;exitDy=0;" parent="1" source="EYPEGqIBR1DLO2vvUoHv-6" target="EYPEGqIBR1DLO2vvUoHv-8" edge="1">
          <mxGeometry width="50" height="50" relative="1" as="geometry">
            <mxPoint x="339.67" y="470" as="sourcePoint" />
            <mxPoint x="389.67" y="420" as="targetPoint" />
          </mxGeometry>
        </mxCell>
        <mxCell id="EYPEGqIBR1DLO2vvUoHv-36" value="websocket" style="edgeLabel;html=1;align=center;verticalAlign=middle;resizable=0;points=[];" parent="EYPEGqIBR1DLO2vvUoHv-21" vertex="1" connectable="0">
          <mxGeometry x="-0.0361" relative="1" as="geometry">
            <mxPoint as="offset" />
          </mxGeometry>
        </mxCell>
        <mxCell id="EYPEGqIBR1DLO2vvUoHv-22" value="" style="endArrow=classic;startArrow=classic;html=1;rounded=0;exitX=0.8;exitY=0.8;exitDx=0;exitDy=0;exitPerimeter=0;entryX=0;entryY=0;entryDx=0;entryDy=0;" parent="1" source="EYPEGqIBR1DLO2vvUoHv-8" target="EYPEGqIBR1DLO2vvUoHv-5" edge="1">
          <mxGeometry width="50" height="50" relative="1" as="geometry">
            <mxPoint x="339.67" y="470" as="sourcePoint" />
            <mxPoint x="389.67" y="420" as="targetPoint" />
          </mxGeometry>
        </mxCell>
        <mxCell id="EYPEGqIBR1DLO2vvUoHv-34" value="mqtt" style="edgeLabel;html=1;align=center;verticalAlign=middle;resizable=0;points=[];" parent="EYPEGqIBR1DLO2vvUoHv-22" vertex="1" connectable="0">
          <mxGeometry x="0.0331" y="1" relative="1" as="geometry">
            <mxPoint as="offset" />
          </mxGeometry>
        </mxCell>
        <mxCell id="EYPEGqIBR1DLO2vvUoHv-25" value="" style="endArrow=classic;startArrow=classic;html=1;rounded=0;exitX=0.55;exitY=0.95;exitDx=0;exitDy=0;exitPerimeter=0;entryX=1;entryY=0;entryDx=0;entryDy=0;" parent="1" source="EYPEGqIBR1DLO2vvUoHv-15" target="EYPEGqIBR1DLO2vvUoHv-5" edge="1">
          <mxGeometry width="50" height="50" relative="1" as="geometry">
            <mxPoint x="339.67" y="470" as="sourcePoint" />
            <mxPoint x="389.67" y="420" as="targetPoint" />
          </mxGeometry>
        </mxCell>
        <mxCell id="EYPEGqIBR1DLO2vvUoHv-35" value="mqtt" style="edgeLabel;html=1;align=center;verticalAlign=middle;resizable=0;points=[];" parent="EYPEGqIBR1DLO2vvUoHv-25" vertex="1" connectable="0">
          <mxGeometry x="-0.0511" y="1" relative="1" as="geometry">
            <mxPoint y="-1" as="offset" />
          </mxGeometry>
        </mxCell>
        <mxCell id="EYPEGqIBR1DLO2vvUoHv-26" value="" style="endArrow=classic;startArrow=classic;html=1;rounded=0;exitX=0;exitY=0.5;exitDx=0;exitDy=0;exitPerimeter=0;entryX=0.875;entryY=0.5;entryDx=0;entryDy=0;entryPerimeter=0;" parent="1" source="EYPEGqIBR1DLO2vvUoHv-14" target="EYPEGqIBR1DLO2vvUoHv-15" edge="1">
          <mxGeometry width="50" height="50" relative="1" as="geometry">
            <mxPoint x="339.67" y="470" as="sourcePoint" />
            <mxPoint x="389.67" y="420" as="targetPoint" />
          </mxGeometry>
        </mxCell>
        <mxCell id="EYPEGqIBR1DLO2vvUoHv-27" value="" style="endArrow=classic;html=1;rounded=0;entryX=0;entryY=0.5;entryDx=0;entryDy=0;" parent="1" target="EYPEGqIBR1DLO2vvUoHv-18" edge="1">
          <mxGeometry width="50" height="50" relative="1" as="geometry">
            <mxPoint x="490" y="428" as="sourcePoint" />
            <mxPoint x="389.67" y="420" as="targetPoint" />
          </mxGeometry>
        </mxCell>
        <mxCell id="EYPEGqIBR1DLO2vvUoHv-28" value="MQTT broker" style="fillColor=#dae8fc;whiteSpace=wrap;shape=cloud;html=1;strokeColor=#6c8ebf;" parent="1" vertex="1">
          <mxGeometry x="299.67" y="10" width="146.67" height="110" as="geometry" />
        </mxCell>
        <mxCell id="EYPEGqIBR1DLO2vvUoHv-32" value="" style="endArrow=classic;startArrow=classic;html=1;rounded=0;entryX=0.55;entryY=0.95;entryDx=0;entryDy=0;entryPerimeter=0;exitX=0.625;exitY=0.2;exitDx=0;exitDy=0;exitPerimeter=0;" parent="1" source="EYPEGqIBR1DLO2vvUoHv-12" target="EYPEGqIBR1DLO2vvUoHv-28" edge="1">
          <mxGeometry width="50" height="50" relative="1" as="geometry">
            <mxPoint x="339.67" y="280" as="sourcePoint" />
            <mxPoint x="389.67" y="230" as="targetPoint" />
          </mxGeometry>
        </mxCell>
        <mxCell id="EYPEGqIBR1DLO2vvUoHv-33" value="" style="endArrow=classic;startArrow=classic;html=1;rounded=0;exitX=0.96;exitY=0.7;exitDx=0;exitDy=0;exitPerimeter=0;entryX=0.16;entryY=0.55;entryDx=0;entryDy=0;entryPerimeter=0;" parent="1" source="EYPEGqIBR1DLO2vvUoHv-8" target="EYPEGqIBR1DLO2vvUoHv-12" edge="1">
          <mxGeometry width="50" height="50" relative="1" as="geometry">
            <mxPoint x="339.67" y="280" as="sourcePoint" />
            <mxPoint x="289.67" y="230" as="targetPoint" />
          </mxGeometry>
        </mxCell>
        <mxCell id="EYPEGqIBR1DLO2vvUoHv-37" style="edgeStyle=orthogonalEdgeStyle;rounded=0;orthogonalLoop=1;jettySize=auto;html=1;entryX=0.16;entryY=0.55;entryDx=0;entryDy=0;entryPerimeter=0;" parent="1" source="EYPEGqIBR1DLO2vvUoHv-12" target="EYPEGqIBR1DLO2vvUoHv-15" edge="1">
          <mxGeometry relative="1" as="geometry" />
        </mxCell>
        <mxCell id="EYPEGqIBR1DLO2vvUoHv-38" value="cảm biến vân tay" style="rounded=1;whiteSpace=wrap;html=1;fillColor=#dae8fc;strokeColor=#6c8ebf;" parent="1" vertex="1">
          <mxGeometry x="589.67" y="515" width="80" height="75" as="geometry" />
        </mxCell>
        <mxCell id="EYPEGqIBR1DLO2vvUoHv-39" style="edgeStyle=orthogonalEdgeStyle;rounded=0;orthogonalLoop=1;jettySize=auto;html=1;entryX=1.003;entryY=0.821;entryDx=0;entryDy=0;entryPerimeter=0;" parent="1" source="EYPEGqIBR1DLO2vvUoHv-38" target="EYPEGqIBR1DLO2vvUoHv-5" edge="1">
          <mxGeometry relative="1" as="geometry" />
        </mxCell>
      </root>
    </mxGraphModel>
  </diagram>
  <diagram id="mzwwZPuNf8vjeN_IJYTJ" name="Page-6">
    <mxGraphModel dx="1434" dy="772" grid="1" gridSize="10" guides="1" tooltips="1" connect="1" arrows="1" fold="1" page="1" pageScale="1" pageWidth="827" pageHeight="1169" math="0" shadow="0">
      <root>
        <mxCell id="0" />
        <mxCell id="1" parent="0" />
        <mxCell id="dh_XrF4dstF5K9ODMlye-5" value="" style="rounded=0;whiteSpace=wrap;html=1;" parent="1" vertex="1">
          <mxGeometry x="50" y="10" width="740" height="610" as="geometry" />
        </mxCell>
        <mxCell id="xOJUIZqwSeJGPjifsi5Y-29" style="edgeStyle=orthogonalEdgeStyle;rounded=0;orthogonalLoop=1;jettySize=auto;html=1;entryX=0;entryY=0.5;entryDx=0;entryDy=0;" parent="1" source="xOJUIZqwSeJGPjifsi5Y-1" target="xOJUIZqwSeJGPjifsi5Y-28" edge="1">
          <mxGeometry relative="1" as="geometry">
            <Array as="points">
              <mxPoint x="585.33" y="380" />
              <mxPoint x="585.33" y="380" />
            </Array>
          </mxGeometry>
        </mxCell>
        <mxCell id="xOJUIZqwSeJGPjifsi5Y-1" value="&lt;b&gt;ESP32&lt;/b&gt;" style="rounded=1;whiteSpace=wrap;html=1;fillColor=#dae8fc;strokeColor=#6c8ebf;" parent="1" vertex="1">
          <mxGeometry x="437.00000000000006" y="319" width="150" height="210" as="geometry" />
        </mxCell>
        <mxCell id="xOJUIZqwSeJGPjifsi5Y-3" value="Web App" style="fillColor=#dae8fc;whiteSpace=wrap;shape=cloud;html=1;strokeColor=#6c8ebf;" parent="1" vertex="1">
          <mxGeometry x="90" y="160" width="146.67" height="110" as="geometry" />
        </mxCell>
        <mxCell id="xOJUIZqwSeJGPjifsi5Y-4" value="Server" style="fillColor=#dae8fc;whiteSpace=wrap;shape=cloud;html=1;strokeColor=#6c8ebf;" parent="1" vertex="1">
          <mxGeometry x="289.67" y="160" width="146.67" height="110" as="geometry" />
        </mxCell>
        <mxCell id="xOJUIZqwSeJGPjifsi5Y-5" value="MogoDB&lt;div&gt;database&lt;/div&gt;" style="strokeWidth=2;html=1;shape=mxgraph.flowchart.database;whiteSpace=wrap;fillColor=#dae8fc;strokeColor=#6c8ebf;" parent="1" vertex="1">
          <mxGeometry x="670" y="172.5" width="70" height="85" as="geometry" />
        </mxCell>
        <mxCell id="xOJUIZqwSeJGPjifsi5Y-16" value="MQTT broker" style="fillColor=#dae8fc;whiteSpace=wrap;shape=cloud;html=1;strokeColor=#6c8ebf;" parent="1" vertex="1">
          <mxGeometry x="289.67" y="10" width="146.67" height="110" as="geometry" />
        </mxCell>
        <mxCell id="xOJUIZqwSeJGPjifsi5Y-17" value="" style="endArrow=classic;startArrow=classic;html=1;rounded=0;entryX=0.499;entryY=0.96;entryDx=0;entryDy=0;entryPerimeter=0;exitX=0.509;exitY=0.099;exitDx=0;exitDy=0;exitPerimeter=0;" parent="1" target="xOJUIZqwSeJGPjifsi5Y-16" edge="1">
          <mxGeometry width="50" height="50" relative="1" as="geometry">
            <mxPoint x="363.15502999999995" y="172.50000000000006" as="sourcePoint" />
            <mxPoint x="362.86169" y="116.87999999999998" as="targetPoint" />
          </mxGeometry>
        </mxCell>
        <mxCell id="xOJUIZqwSeJGPjifsi5Y-18" value="" style="endArrow=classic;startArrow=classic;html=1;rounded=0;exitX=0.923;exitY=0.545;exitDx=0;exitDy=0;exitPerimeter=0;entryX=0.16;entryY=0.55;entryDx=0;entryDy=0;entryPerimeter=0;" parent="1" source="xOJUIZqwSeJGPjifsi5Y-3" target="xOJUIZqwSeJGPjifsi5Y-4" edge="1">
          <mxGeometry width="50" height="50" relative="1" as="geometry">
            <mxPoint x="339.67" y="280" as="sourcePoint" />
            <mxPoint x="280" y="240" as="targetPoint" />
          </mxGeometry>
        </mxCell>
        <mxCell id="xOJUIZqwSeJGPjifsi5Y-20" value="cảm biến vân tay R307" style="rounded=1;whiteSpace=wrap;html=1;fillColor=#dae8fc;strokeColor=#6c8ebf;" parent="1" vertex="1">
          <mxGeometry x="320" y="394" width="70.66" height="60" as="geometry" />
        </mxCell>
        <mxCell id="xOJUIZqwSeJGPjifsi5Y-27" style="edgeStyle=orthogonalEdgeStyle;rounded=0;orthogonalLoop=1;jettySize=auto;html=1;entryX=0;entryY=0.5;entryDx=0;entryDy=0;" parent="1" source="xOJUIZqwSeJGPjifsi5Y-20" target="xOJUIZqwSeJGPjifsi5Y-1" edge="1">
          <mxGeometry relative="1" as="geometry">
            <Array as="points" />
          </mxGeometry>
        </mxCell>
        <mxCell id="xOJUIZqwSeJGPjifsi5Y-28" value="7 cửa" style="rounded=1;whiteSpace=wrap;html=1;fillColor=#dae8fc;strokeColor=#6c8ebf;" parent="1" vertex="1">
          <mxGeometry x="637.6700000000001" y="350" width="70.66" height="60" as="geometry" />
        </mxCell>
        <mxCell id="xOJUIZqwSeJGPjifsi5Y-31" value="&lt;b&gt;POWER&lt;/b&gt;" style="rounded=1;whiteSpace=wrap;html=1;fillColor=#ffe6cc;strokeColor=#d79b00;" parent="1" vertex="1">
          <mxGeometry x="110" y="550" width="630" height="50" as="geometry" />
        </mxCell>
        <mxCell id="xOJUIZqwSeJGPjifsi5Y-32" value="Led trạng thái" style="rounded=1;whiteSpace=wrap;html=1;fillColor=#dae8fc;strokeColor=#6c8ebf;" parent="1" vertex="1">
          <mxGeometry x="637.6700000000001" y="450" width="70.66" height="60" as="geometry" />
        </mxCell>
        <mxCell id="xOJUIZqwSeJGPjifsi5Y-33" style="edgeStyle=orthogonalEdgeStyle;rounded=0;orthogonalLoop=1;jettySize=auto;html=1;" parent="1" edge="1">
          <mxGeometry relative="1" as="geometry">
            <mxPoint x="598.65" y="480.1" as="sourcePoint" />
            <mxPoint x="637" y="480" as="targetPoint" />
            <Array as="points">
              <mxPoint x="586.99" y="479.90000000000003" />
              <mxPoint x="586.99" y="479.90000000000003" />
            </Array>
          </mxGeometry>
        </mxCell>
        <mxCell id="dh_XrF4dstF5K9ODMlye-1" value="Script Python" style="fillColor=#dae8fc;whiteSpace=wrap;shape=cloud;html=1;strokeColor=#6c8ebf;" parent="1" vertex="1">
          <mxGeometry x="474.34000000000003" y="160" width="146.67" height="110" as="geometry" />
        </mxCell>
        <mxCell id="dh_XrF4dstF5K9ODMlye-2" value="" style="endArrow=classic;startArrow=classic;html=1;rounded=0;exitX=0.933;exitY=0.543;exitDx=0;exitDy=0;exitPerimeter=0;entryX=0.142;entryY=0.551;entryDx=0;entryDy=0;entryPerimeter=0;" parent="1" source="xOJUIZqwSeJGPjifsi5Y-4" target="dh_XrF4dstF5K9ODMlye-1" edge="1">
          <mxGeometry width="50" height="50" relative="1" as="geometry">
            <mxPoint x="490" y="180" as="sourcePoint" />
            <mxPoint x="540" y="130" as="targetPoint" />
          </mxGeometry>
        </mxCell>
        <mxCell id="dh_XrF4dstF5K9ODMlye-3" value="" style="endArrow=classic;startArrow=classic;html=1;rounded=0;exitX=0.875;exitY=0.5;exitDx=0;exitDy=0;exitPerimeter=0;entryX=0;entryY=0.5;entryDx=0;entryDy=0;entryPerimeter=0;" parent="1" source="dh_XrF4dstF5K9ODMlye-1" target="xOJUIZqwSeJGPjifsi5Y-5" edge="1">
          <mxGeometry width="50" height="50" relative="1" as="geometry">
            <mxPoint x="660" y="190" as="sourcePoint" />
            <mxPoint x="710" y="140" as="targetPoint" />
          </mxGeometry>
        </mxCell>
        <mxCell id="dh_XrF4dstF5K9ODMlye-4" value="&lt;b&gt;ESP32-CAM&lt;/b&gt;" style="rounded=1;whiteSpace=wrap;html=1;fillColor=#dae8fc;strokeColor=#6c8ebf;" parent="1" vertex="1">
          <mxGeometry x="110.00000000000006" y="319" width="150" height="210" as="geometry" />
        </mxCell>
      </root>
    </mxGraphModel>
  </diagram>
  <diagram id="7Xx0ph2n7wEy-q6a8WU4" name="main ESP32">
    <mxGraphModel dx="989" dy="532" grid="1" gridSize="10" guides="1" tooltips="1" connect="1" arrows="1" fold="1" page="1" pageScale="1" pageWidth="827" pageHeight="1169" math="0" shadow="0">
      <root>
        <mxCell id="0" />
        <mxCell id="1" parent="0" />
        <mxCell id="hgR2tzklzzE4IKXQdhLl-20" value="" style="rounded=0;whiteSpace=wrap;html=1;" vertex="1" parent="1">
          <mxGeometry x="235" y="140" width="210" height="430" as="geometry" />
        </mxCell>
        <mxCell id="hgR2tzklzzE4IKXQdhLl-7" style="edgeStyle=orthogonalEdgeStyle;rounded=0;orthogonalLoop=1;jettySize=auto;html=1;entryX=0.5;entryY=0;entryDx=0;entryDy=0;strokeWidth=2;curved=0;jumpStyle=none;flowAnimation=0;shadow=1;strokeColor=#506E8A;endArrow=classicThin;endFill=1;fillColor=#647687;" edge="1" parent="1" source="hgR2tzklzzE4IKXQdhLl-1" target="hgR2tzklzzE4IKXQdhLl-2">
          <mxGeometry relative="1" as="geometry" />
        </mxCell>
        <mxCell id="hgR2tzklzzE4IKXQdhLl-1" value="Bắt đầu" style="ellipse;whiteSpace=wrap;html=1;fillColor=#1ba1e2;strokeColor=#006EAF;fontColor=#ffffff;" vertex="1" parent="1">
          <mxGeometry x="290" y="160" width="100" height="40" as="geometry" />
        </mxCell>
        <mxCell id="hgR2tzklzzE4IKXQdhLl-2" value="Kết nối Wi-Fi" style="rounded=0;whiteSpace=wrap;html=1;fillColor=#1ba1e2;fontColor=#ffffff;strokeColor=#006EAF;" vertex="1" parent="1">
          <mxGeometry x="270" y="230" width="140" height="40" as="geometry" />
        </mxCell>
        <mxCell id="hgR2tzklzzE4IKXQdhLl-3" value="Khởi tạo camera OV2640 (pin)" style="rounded=0;whiteSpace=wrap;html=1;fillColor=#1ba1e2;fontColor=#ffffff;strokeColor=#006EAF;" vertex="1" parent="1">
          <mxGeometry x="270" y="300" width="140" height="40" as="geometry" />
        </mxCell>
        <mxCell id="hgR2tzklzzE4IKXQdhLl-4" value="Khởi tạo server,&amp;nbsp;với các websocket handler" style="rounded=0;whiteSpace=wrap;html=1;fillColor=#1ba1e2;fontColor=#ffffff;strokeColor=#006EAF;" vertex="1" parent="1">
          <mxGeometry x="270" y="370" width="140" height="40" as="geometry" />
        </mxCell>
        <mxCell id="hgR2tzklzzE4IKXQdhLl-5" value="Khởi tạo MQTT, đăng ký đến các topic" style="rounded=0;whiteSpace=wrap;html=1;fillColor=#1ba1e2;fontColor=#ffffff;strokeColor=#006EAF;" vertex="1" parent="1">
          <mxGeometry x="270" y="440" width="140" height="40" as="geometry" />
        </mxCell>
        <mxCell id="hgR2tzklzzE4IKXQdhLl-6" value="End" style="ellipse;whiteSpace=wrap;html=1;fillColor=#1ba1e2;strokeColor=#006EAF;fontColor=#ffffff;" vertex="1" parent="1">
          <mxGeometry x="290" y="510" width="100" height="40" as="geometry" />
        </mxCell>
        <mxCell id="hgR2tzklzzE4IKXQdhLl-16" style="edgeStyle=orthogonalEdgeStyle;rounded=0;orthogonalLoop=1;jettySize=auto;html=1;entryX=0.5;entryY=0;entryDx=0;entryDy=0;strokeWidth=2;curved=0;jumpStyle=none;flowAnimation=0;shadow=1;strokeColor=#506E8A;endArrow=classicThin;endFill=1;fillColor=#647687;exitX=0.5;exitY=1;exitDx=0;exitDy=0;" edge="1" parent="1" source="hgR2tzklzzE4IKXQdhLl-2" target="hgR2tzklzzE4IKXQdhLl-3">
          <mxGeometry relative="1" as="geometry">
            <mxPoint x="350" y="210" as="sourcePoint" />
            <mxPoint x="350" y="240" as="targetPoint" />
          </mxGeometry>
        </mxCell>
        <mxCell id="hgR2tzklzzE4IKXQdhLl-17" style="edgeStyle=orthogonalEdgeStyle;rounded=0;orthogonalLoop=1;jettySize=auto;html=1;entryX=0.5;entryY=0;entryDx=0;entryDy=0;strokeWidth=2;curved=0;jumpStyle=none;flowAnimation=0;shadow=1;strokeColor=#506E8A;endArrow=classicThin;endFill=1;fillColor=#647687;exitX=0.5;exitY=1;exitDx=0;exitDy=0;" edge="1" parent="1" source="hgR2tzklzzE4IKXQdhLl-3" target="hgR2tzklzzE4IKXQdhLl-4">
          <mxGeometry relative="1" as="geometry">
            <mxPoint x="350" y="280" as="sourcePoint" />
            <mxPoint x="350" y="310" as="targetPoint" />
          </mxGeometry>
        </mxCell>
        <mxCell id="hgR2tzklzzE4IKXQdhLl-18" style="edgeStyle=orthogonalEdgeStyle;rounded=0;orthogonalLoop=1;jettySize=auto;html=1;entryX=0.5;entryY=0;entryDx=0;entryDy=0;strokeWidth=2;curved=0;jumpStyle=none;flowAnimation=0;shadow=1;strokeColor=#506E8A;endArrow=classicThin;endFill=1;fillColor=#647687;exitX=0.5;exitY=1;exitDx=0;exitDy=0;" edge="1" parent="1" source="hgR2tzklzzE4IKXQdhLl-4" target="hgR2tzklzzE4IKXQdhLl-5">
          <mxGeometry relative="1" as="geometry">
            <mxPoint x="350" y="350" as="sourcePoint" />
            <mxPoint x="350" y="380" as="targetPoint" />
          </mxGeometry>
        </mxCell>
        <mxCell id="hgR2tzklzzE4IKXQdhLl-19" style="edgeStyle=orthogonalEdgeStyle;rounded=0;orthogonalLoop=1;jettySize=auto;html=1;entryX=0.5;entryY=0;entryDx=0;entryDy=0;strokeWidth=2;curved=0;jumpStyle=none;flowAnimation=0;shadow=1;strokeColor=#506E8A;endArrow=classicThin;endFill=1;fillColor=#647687;exitX=0.5;exitY=1;exitDx=0;exitDy=0;" edge="1" parent="1" source="hgR2tzklzzE4IKXQdhLl-5" target="hgR2tzklzzE4IKXQdhLl-6">
          <mxGeometry relative="1" as="geometry">
            <mxPoint x="350" y="420" as="sourcePoint" />
            <mxPoint x="350" y="450" as="targetPoint" />
          </mxGeometry>
        </mxCell>
      </root>
    </mxGraphModel>
  </diagram>
  <diagram id="ZkV0H7Ar-3d8Q_hdsHgE" name="MQTT_EVENT_DATA">
    <mxGraphModel dx="819" dy="441" grid="1" gridSize="10" guides="1" tooltips="1" connect="1" arrows="1" fold="1" page="1" pageScale="1" pageWidth="827" pageHeight="1169" math="0" shadow="0">
      <root>
        <mxCell id="0" />
        <mxCell id="1" parent="0" />
        <mxCell id="G_jF_W6iWTMbOdS2urEc-26" value="" style="rounded=0;whiteSpace=wrap;html=1;" vertex="1" parent="1">
          <mxGeometry x="180" y="140" width="321" height="380" as="geometry" />
        </mxCell>
        <mxCell id="G_jF_W6iWTMbOdS2urEc-2" style="edgeStyle=orthogonalEdgeStyle;rounded=0;orthogonalLoop=1;jettySize=auto;html=1;strokeWidth=2;curved=0;jumpStyle=none;flowAnimation=0;shadow=1;strokeColor=#506E8A;endArrow=classicThin;endFill=1;fillColor=#647687;" edge="1" parent="1" source="G_jF_W6iWTMbOdS2urEc-3">
          <mxGeometry relative="1" as="geometry">
            <mxPoint x="340" y="230" as="targetPoint" />
          </mxGeometry>
        </mxCell>
        <mxCell id="G_jF_W6iWTMbOdS2urEc-3" value="Bắt đầu" style="ellipse;whiteSpace=wrap;html=1;fillColor=#1ba1e2;strokeColor=#006EAF;fontColor=#ffffff;" vertex="1" parent="1">
          <mxGeometry x="290" y="160" width="100" height="40" as="geometry" />
        </mxCell>
        <mxCell id="G_jF_W6iWTMbOdS2urEc-5" value="Gán biến dl_image bằng false" style="rounded=0;whiteSpace=wrap;html=1;fillColor=#1ba1e2;fontColor=#ffffff;strokeColor=#006EAF;" vertex="1" parent="1">
          <mxGeometry x="220" y="230" width="240" height="40" as="geometry" />
        </mxCell>
        <mxCell id="G_jF_W6iWTMbOdS2urEc-8" value="End" style="ellipse;whiteSpace=wrap;html=1;fillColor=#1ba1e2;strokeColor=#006EAF;fontColor=#ffffff;" vertex="1" parent="1">
          <mxGeometry x="290" y="460" width="100" height="40" as="geometry" />
        </mxCell>
        <mxCell id="G_jF_W6iWTMbOdS2urEc-13" value="Message nhận được là &quot;dl_image&quot;?" style="rhombus;whiteSpace=wrap;html=1;fillColor=#1ba1e2;fontColor=#ffffff;strokeColor=#006EAF;" vertex="1" parent="1">
          <mxGeometry x="220" y="300" width="240" height="50" as="geometry" />
        </mxCell>
        <mxCell id="G_jF_W6iWTMbOdS2urEc-15" style="edgeStyle=orthogonalEdgeStyle;rounded=0;orthogonalLoop=1;jettySize=auto;html=1;strokeWidth=2;curved=0;jumpStyle=none;flowAnimation=0;shadow=1;strokeColor=#506E8A;endArrow=classicThin;endFill=1;fillColor=#647687;" edge="1" parent="1">
          <mxGeometry relative="1" as="geometry">
            <mxPoint x="339.83" y="270" as="sourcePoint" />
            <mxPoint x="339.83" y="300" as="targetPoint" />
          </mxGeometry>
        </mxCell>
        <mxCell id="G_jF_W6iWTMbOdS2urEc-16" style="edgeStyle=orthogonalEdgeStyle;rounded=0;orthogonalLoop=1;jettySize=auto;html=1;strokeWidth=2;curved=0;jumpStyle=none;flowAnimation=0;shadow=1;strokeColor=#506E8A;endArrow=classicThin;endFill=1;fillColor=#647687;exitX=0.5;exitY=1;exitDx=0;exitDy=0;entryX=0.5;entryY=0;entryDx=0;entryDy=0;" edge="1" parent="1" source="G_jF_W6iWTMbOdS2urEc-13" target="G_jF_W6iWTMbOdS2urEc-18">
          <mxGeometry relative="1" as="geometry">
            <mxPoint x="349.83" y="280" as="sourcePoint" />
            <mxPoint x="340" y="380" as="targetPoint" />
          </mxGeometry>
        </mxCell>
        <mxCell id="G_jF_W6iWTMbOdS2urEc-20" value="&lt;b&gt;&lt;font color=&quot;#506e8a&quot;&gt;Yes&lt;/font&gt;&lt;/b&gt;" style="edgeLabel;html=1;align=center;verticalAlign=middle;resizable=0;points=[];" vertex="1" connectable="0" parent="G_jF_W6iWTMbOdS2urEc-16">
          <mxGeometry x="-0.3556" y="-1" relative="1" as="geometry">
            <mxPoint x="1" as="offset" />
          </mxGeometry>
        </mxCell>
        <mxCell id="G_jF_W6iWTMbOdS2urEc-18" value="Gán biến dl_image bằng true" style="rounded=0;whiteSpace=wrap;html=1;fillColor=#1ba1e2;fontColor=#ffffff;strokeColor=#006EAF;" vertex="1" parent="1">
          <mxGeometry x="220" y="390" width="240" height="40" as="geometry" />
        </mxCell>
        <mxCell id="G_jF_W6iWTMbOdS2urEc-19" style="edgeStyle=orthogonalEdgeStyle;rounded=0;orthogonalLoop=1;jettySize=auto;html=1;strokeWidth=2;curved=0;jumpStyle=none;flowAnimation=0;shadow=1;strokeColor=#506E8A;endArrow=classicThin;endFill=1;fillColor=#647687;entryX=0.5;entryY=0;entryDx=0;entryDy=0;exitX=0.5;exitY=1;exitDx=0;exitDy=0;" edge="1" parent="1" source="G_jF_W6iWTMbOdS2urEc-18" target="G_jF_W6iWTMbOdS2urEc-8">
          <mxGeometry relative="1" as="geometry">
            <mxPoint x="310" y="440" as="sourcePoint" />
            <mxPoint x="350" y="400" as="targetPoint" />
          </mxGeometry>
        </mxCell>
        <mxCell id="G_jF_W6iWTMbOdS2urEc-22" style="edgeStyle=orthogonalEdgeStyle;rounded=0;orthogonalLoop=1;jettySize=auto;html=1;strokeWidth=2;curved=0;jumpStyle=none;flowAnimation=0;shadow=1;strokeColor=#506E8A;endArrow=classicThin;endFill=1;fillColor=#647687;exitX=1;exitY=0.5;exitDx=0;exitDy=0;" edge="1" parent="1" source="G_jF_W6iWTMbOdS2urEc-13">
          <mxGeometry relative="1" as="geometry">
            <mxPoint x="349.83" y="280" as="sourcePoint" />
            <mxPoint x="340" y="440" as="targetPoint" />
            <Array as="points">
              <mxPoint x="490" y="325" />
              <mxPoint x="490" y="440" />
            </Array>
          </mxGeometry>
        </mxCell>
        <mxCell id="G_jF_W6iWTMbOdS2urEc-24" value="&lt;b&gt;&lt;font color=&quot;#506e8a&quot;&gt;No&lt;/font&gt;&lt;/b&gt;" style="edgeLabel;html=1;align=center;verticalAlign=middle;resizable=0;points=[];" vertex="1" connectable="0" parent="G_jF_W6iWTMbOdS2urEc-22">
          <mxGeometry x="-0.3829" relative="1" as="geometry">
            <mxPoint x="-27" y="-57" as="offset" />
          </mxGeometry>
        </mxCell>
      </root>
    </mxGraphModel>
  </diagram>
</mxfile>
